<!-- Generated by IcoMoon.io -->
<svg version="1.1" xmlns="http://www.w3.org/2000/svg" width="32" height="32" viewBox="0 0 32 32">
<title>twitter</title>
<path d="M29.946 8.017c-1.026 0.455-2.129 0.763-3.286 0.901 1.181-0.708 2.089-1.83 2.516-3.166-1.106 0.656-2.33 1.132-3.634 1.389-1.044-1.112-2.531-1.807-4.177-1.807-3.16 0-5.722 2.562-5.722 5.722 0 0.448 0.051 0.885 0.148 1.304-4.756-0.239-8.972-2.517-11.794-5.979-0.493 0.845-0.775 1.828-0.775 2.877 0 1.985 1.010 3.737 2.546 4.763-0.938-0.030-1.82-0.287-2.592-0.716-0.001 0.024-0.001 0.048-0.001 0.072 0 2.773 1.972 5.085 4.59 5.611-0.48 0.131-0.986 0.201-1.508 0.201-0.369 0-0.727-0.036-1.077-0.103 0.728 2.273 2.841 3.928 5.345 3.974-1.958 1.535-4.426 2.45-7.107 2.45-0.462 0-0.917-0.027-1.365-0.080 2.532 1.624 5.54 2.571 8.772 2.571 10.525 0 16.281-8.719 16.281-16.281 0-0.248-0.006-0.495-0.017-0.74 1.118-0.807 2.088-1.815 2.855-2.962z"></path>
</svg>
